<?xml version="1.0" encoding="UTF-8" standalone="no"?><!DOCTYPE svg PUBLIC "-//W3C//DTD SVG 1.1//EN" "http://www.w3.org/Graphics/SVG/1.1/DTD/svg11.dtd"><svg xmlns="http://www.w3.org/2000/svg" xmlns:xlink="http://www.w3.org/1999/xlink" version="1.1" width="1024" height="1024" viewBox="0 0 1024 1024">
<desc>Created with SVGMaker Editor 3.0.0</desc>
<defs>
</defs>
<g transform="matrix(2.77808 0 0 2.77808 510.45591 443.9582)">
<g transform="translate(0,0)" style="">
<path transform="translate(0,0)" style="fill: rgb(216,139,15)" stroke-linecap="round" d="M63.0677 83.0171"/>
<path transform="translate(0,0)" style="stroke: rgb(35,35,35); stroke-width: 5; stroke-linecap: round; stroke-linejoin: round; fill: rgb(255,255,255)" stroke-linecap="round" d="M69.1977 18.3471L94.2977 16.0971C94.2977 16.0971 110.8077 39.5871 141.6977 31.4171 172.5877 23.2471 177.6977-11.4729 169.0177-28.5829 160.3377-45.6929 133.3977-53.1729 114.0777-47.2129 91.8877-40.3729 79.4077-13.6229 86.2477 1.2971Z"/>
<path transform="translate(0,0)" style="stroke: rgb(35,35,35); stroke-width: 5; stroke-linecap: round; stroke-linejoin: round; fill: rgb(255,193,58)" stroke-linecap="round" d="M127.4377-14.8729C127.4377-14.8729 120.6277-20.4929 112.8877-16.0729 105.1477-11.6529 104.1177 2.9271 134.8377 8.2671 134.8377 8.2671 156.9677-14.2829 146.5877-23.5629 136.2077-32.8429 127.4377-14.8729 127.4377-14.8729Z"/>
<path transform="translate(0,0)" style="stroke: rgb(255,255,255); stroke-width: 5; stroke-linecap: round; stroke-linejoin: round; fill: none" stroke-linecap="round" d="M139.8577-20.5829C139.8577-20.5829 143.4377-19.2129 142.1577-13.3429"/>
<line transform="translate(0,0)" style="stroke: rgb(255,255,255); stroke-width: 5; stroke-linecap: round; stroke-linejoin: round; fill: none" x1="137.8977" y1="-4.3229" x2="138.4077" y2="-5.0929"/>
<path transform="translate(0,0)" style="fill: rgb(255,164,1)" stroke-linecap="round" d="M-75.4623-32.1429L-84.5623-44.1429-87.8023-62.4529-90.1723-77.9829-101.2423-85.9829-114.3523-82.7029-119.1223-65.0829-114.8623-46.5329-111.1523-37.4029-103.7123-30.6229-98.0923-26.8029-91.6323-23.6529-86.7623-21.7529-87.8023-17.8029-120.1323 27.8371-129.9323 44.8371-135.3723 60.3171-132.4523 65.8471-125.8723 65.3471-123.8723 67.4271-130.3123 87.6971-127.5023 97.7771-123.5023 101.3071-115.1323 107.3071-108.1323 111.3071-102.4523 112.1571-98.3423 118.8371-90.9123 127.2871-83.6323 131.1971-76.2323 133.1971-66.5223 132.3071C-66.5223 132.3071-56.0223 129.9271-55.8323 129.8471-55.6423 129.7671-47.6223 125.1771-47.6223 125.1771L-44.9223 121.1771-35.6723 119.3771-25.5823 120.3771-16.5823 121.9071-8.4823 128.0571 12.7377 130.8071 24.4577 124.9071 30.4577 120.8171 34.0877 114.5671 38.2077 110.8671 49.8977 107.3871 63.1977 96.5871 66.2977 86.5871 63.9177 77.9071 60.6877 69.3971 61.8777 65.3971 68.8777 66.6071 71.0877 62.4171 64.6077 44.7271 45.1077 13.0371 26.1977-13.1329 20.9177-18.3929 23.1377-21.9229 34.3977-26.4229 45.0377-34.5829 51.1877-46.5829 53.8477-59.3529 52.9577-72.4229 48.3577-83.2229 40.3577-86.9329 28.6077-83.7429 23.1277-75.4429 21.6177-61.6229 20.3477-48.6229 14.3477-35.0129 10.3477-32.1329 1.5577-32.4729-11.8023-35.3929-29.3623-37.1129-51.9623-35.8029-70.2623-30.6629-75.4623-32.1029"/>
<polyline transform="translate(0,0)" style="fill: rgb(229,100,103)" points="-43.9523,64.1971 -43.8323,70.2971 -39.4223,79.1671 -36.1423,82.3671 -31.0323,83.2471 -25.3323,80.9571 -22.7623,77.0371 -21.2523,69.3771 -19.4023,66.4071 -22.7623,62.9071 -30.2723,57.9771 -35.0423,57.9771 -37.4223,61.6371 -43.9523,64.1971"/>
<ellipse transform="translate(0,0)" style="fill: rgb(165,133,219)" cx="-32.9923" cy="28.7371" rx="32.94" ry="15.19"/>
<path transform="translate(0,0)" style="fill: rgb(255,194,95)" stroke-linecap="round" d="M-68.4723-31.6029C-68.4723-31.6029-4.2623-25.9129 0.7177-29.3629 5.6977-32.8129-12.8723-34.6429-12.8723-34.6429L-52.9823-35.0929-69.3123-32.1729"/>
<path transform="translate(0,0)" style="fill: rgb(255,194,95)" stroke-linecap="round" d="M27.2677-81.6829C27.2677-81.6829 43.2677-87.9429 44.3677-72.7529 45.069-63.5633 46.8066-54.4823 49.5477-45.6829L51.2677-60.1129 52.1777-68.9129 50.2277-76.9129 44.8977-84.6729 35.3077-86.4429Z"/>
<path transform="translate(0,0)" style="fill: rgb(255,194,95)" stroke-linecap="round" d="M-114.8023-80.7529C-114.8023-80.7529-98.1223-80.7529-97.6123-56.7529-97.1023-32.7529-80.7523-35.8029-80.7523-35.8029L-85.2723-43.6929-86.9823-52.6929-87.9823-64.6929-89.0923-72.3329-90.3923-79.3329-94.6723-83.3329-103.8423-86.7729-111.0223-84.3029"/>
<path transform="translate(0,0)" style="fill: rgb(255,194,95)" stroke-linecap="round" d="M48.8977 19.6171C48.8977 19.6171 62.2177 63.7771 66.3977 65.3071 70.5777 66.8371 69.1277 61.0571 69.1277 61.0571L66.1977 51.1971"/>
<path transform="translate(0,0)" style="fill: rgb(255,194,95)" stroke-linecap="round" d="M11.0577 85.1971C11.0577 85.1971 33.9077 98.1071 34.3477 107.8071 34.7877 117.5071 30.5877 90.7071 30.5877 90.7071L23.9977 85.1971 19.8577 84.3171 12.3277 84.3171"/>
<path transform="translate(0,0)" style="fill: rgb(255,194,95)" stroke-linecap="round" d="M-69.4323 90.6571C-69.4323 90.6571-60.1823 91.3571-59.2223 98.5071-58.2623 105.6571-42.6923 106.5071-41.9923 111.5071-41.2923 116.5071-40.7423 104.8271-40.7423 104.8271L-45.0523 99.4371-49.7123 96.3771-55.0923 99.3771-57.5623 92.9971-59.2223 89.0971Z"/>
<path transform="translate(0,0)" style="fill: rgb(216,139,15)" stroke-linecap="round" d="M-100.0123 99.7171C-100.0123 99.7171-90.5623 129.0471-68.4823 130.6571-46.4023 132.2671-83.4123 132.0171-83.4123 132.0171L-94.9523 123.3871C-94.9523 123.3871-99.7823 117.6871-100.0123 117.3171-100.2423 116.9471-105.1123 111.0771-105.1123 111.0771L-116.1823 106.8371-127.8023 97.9871"/>
<polyline transform="translate(0,0)" style="fill: rgb(216,139,15)" points="-27.2423,109.8771 -42.6523,116.1871 -42.6523,120.0171 -26.0223,119.9271 -24.2323,116.3371 -27.8823,109.8771"/>
<polyline transform="translate(0,0)" style="fill: rgb(216,139,15)" points="34.9177,100.7871 53.3077,101.7171 45.6177,110.3171 34.3777,110.9971 35.4377,102.3971"/>
<path transform="translate(0,0)" style="fill: rgb(216,139,15)" stroke-linecap="round" d="M-26.2223 105.8871C-26.2223 105.8871-4.1123 128.4971 5.7777 129.4871 15.6677 130.4771-7.0223 128.3771-7.0223 128.3771L-13.6023 124.4371-21.2923 119.4371-26.2923 114.9371-29.4823 107.6271"/>
<path transform="translate(0,0)" style="fill: rgb(216,139,15)" stroke-linecap="round" d="M-50.2823 67.4171C-50.2823 67.4171-44.8023 85.6771-38.6023 86.0571-32.4023 86.4371-33.1623 83.4471-33.1623 83.4471L-41.7323 76.7371-44.7323 70.0371-46.5823 66.4071-51.8823 66.7171"/>
<path transform="translate(0,0)" style="fill: rgb(216,139,15)" stroke-linecap="round" d="M17.2477-41.7529C17.2477-41.7529 25.7977-29.2829 19.0977-29.1529 12.3977-29.0229 8.6877-34.0729 8.8877-34.1529 9.0877-34.2329 12.6477-36.3129 12.6477-36.3129L15.5877-39.2029 16.7977-42.9029"/>
<path transform="translate(0,0)" style="fill: rgb(216,139,15)" stroke-linecap="round" d="M-119.1223-65.0829C-119.1223-65.0829-103.0723-33.9429-94.1223-31.5129-85.1723-29.0829-88.1223-22.2829-88.1223-22.2829L-99.4623-26.2829-107.1423-31.1829-113.3923-38.0729-118.6223-50.8029-119.1223-60.0929Z"/>
<path transform="translate(0,0)" style="fill: rgb(216,139,15)" stroke-linecap="round" d="M-101.1023-1.0629C-101.1023-1.0629-125.8823 54.2471-124.3923 62.9371-122.9023 71.6271-127.0223 64.8471-127.0223 64.8471L-131.5523 66.3571-136.5523 61.1071-135.2823 54.1971-129.2823 41.0971-114.5523 17.3571"/>
<path transform="translate(0,0)" style="fill: rgb(216,139,15)" stroke-linecap="round" d="M-124.0223 64.8671C-124.0223 64.8671-124.1423 92.8671-117.1623 94.8671-110.1823 96.8671-98.9723 97.0371-98.9723 97.0371L-106.2623 105.8471C-106.2623 105.8471-114.9423 101.8471-115.8023 101.6771-116.6623 101.5071-125.5023 97.9471-125.5023 97.9471L-130.8023 93.5571-131.5223 90.3071"/>
<line transform="translate(0,0)" style="stroke: rgb(244,233,119); stroke-width: 8; stroke-linecap: round; stroke-miterlimit: 10; fill: none" x1="-107.6123" y1="69.8571" x2="-112.4623" y2="79.6871"/>
<line transform="translate(0,0)" style="stroke: rgb(244,233,119); stroke-width: 8; stroke-linecap: round; stroke-miterlimit: 10; fill: none" x1="-96.3923" y1="71.8571" x2="-101.2423" y2="81.6871"/>
<line transform="translate(0,0)" style="stroke: rgb(244,233,119); stroke-width: 8; stroke-linecap: round; stroke-miterlimit: 10; fill: none" x1="26.3277" y1="68.5271" x2="33.4777" y2="83.0171"/>
<line transform="translate(0,0)" style="stroke: rgb(244,233,119); stroke-width: 8; stroke-linecap: round; stroke-miterlimit: 10; fill: none" x1="38.4677" y1="65.7671" x2="45.6177" y2="80.2571"/>
<path transform="translate(0,0)" style="stroke: rgb(35,35,35); stroke-width: 5; stroke-linecap: round; stroke-linejoin: round; fill: none" stroke-linecap="round" d="M-73.3723 95.2471C-73.3723 95.2471-72.4823 85.8071-83.9723 85.1671-95.4623 84.5271-104.2623 102.3971-100.8023 114.6571-97.3423 126.9171-83.3123 132.5271-75.5223 132.7871-67.7323 133.0471-48.3323 130.2271-41.5223 115.9271-34.7123 101.6271-51.3523 91.2971-55.6923 99.3371-55.6923 99.3371-55.6923 88.2271-62.5923 87.4671-69.4923 86.7071-73.3723 95.2471-73.3723 95.2471Z"/>
<path transform="translate(0,0)" style="stroke: rgb(35,35,35); stroke-width: 5; stroke-linecap: round; stroke-linejoin: round; fill: none" stroke-linecap="round" d="M6.1977 93.1171C6.1977 93.1171 5.3077 83.6671 16.7977 83.0271 28.2877 82.3871 37.0877 100.2671 33.6477 112.5171 30.2077 124.7671 16.1577 130.3871 8.3677 130.6471 0.5777 130.9071-18.8223 128.0971-25.6323 113.7971-32.4423 99.4971-15.8023 89.1971-11.4723 97.1971-11.4723 97.1971-11.4723 86.0971-4.5723 85.3271 2.3277 84.5571 6.1977 93.1171 6.1977 93.1171Z"/>
<line transform="translate(0,0)" style="stroke: rgb(35,35,35); stroke-width: 5; stroke-linecap: round; stroke-linejoin: round; fill: none" x1="-42.6523" y1="119.4471" x2="-23.3723" y2="118.8571"/>
<g transform="matrix(0.2711 -0.96255 0.96255 0.2711 -75.79032 18.34791)" id="Layer_1">
<ellipse transform="translate(0,0)" style="stroke: rgb(35,35,35); stroke-width: 5; stroke-linecap: round; stroke-linejoin: round; fill: rgb(255,255,255)" cx="0" cy="0" rx="27.18" ry="22.98"/>
</g>
<g transform="matrix(0.96 -0.27 0.27 0.96 7.5874 17.17566)" id="Layer_1">
<ellipse transform="translate(0,0)" style="stroke: rgb(35,35,35); stroke-width: 5; stroke-linecap: round; stroke-linejoin: round; fill: rgb(255,255,255)" cx="0" cy="0" rx="22.98" ry="27.18"/>
</g>
<ellipse transform="translate(0,0)" style="fill: rgb(35,35,35)" cx="-64.9023" cy="14.9971" rx="10.89" ry="18.13"/>
<ellipse transform="translate(0,0)" style="fill: rgb(35,35,35)" cx="-2.6723" cy="14.9971" rx="10.89" ry="18.13"/>
<path transform="translate(0,0)" style="fill: rgb(35,35,35)" stroke-linecap="round" d="M-12.6923 38.2471C-12.6923 43.4371-21.9423 47.6371-33.3523 47.6371-37.8669 47.6956-42.3562 46.9541-46.6123 45.4471-51.1323 43.7271-54.0123 41.1371-54.0123 38.2471-54.0123 33.0671-44.7623 28.8671-33.3523 28.8671-21.9423 28.8671-12.6923 33.0671-12.6923 38.2471Z"/>
<ellipse transform="translate(0,0)" style="fill: rgb(35,35,35)" cx="-33.3523" cy="46.8671" rx="10.6" ry="7.53"/>
<path transform="translate(0,0)" style="stroke: rgb(35,35,35); stroke-width: 5; stroke-linecap: round; stroke-linejoin: round; fill: none" stroke-linecap="round" d="M-63.7123 56.6971C-63.7123 56.6971-59.2823 57.1271-54.7723 51.8471"/>
<path transform="translate(0,0)" style="stroke: rgb(35,35,35); stroke-width: 5; stroke-linecap: round; stroke-linejoin: round; fill: none" stroke-linecap="round" d="M-11.5423 51.8471C-11.5423 51.8471-5.0723 56.0171-1.2423 55.2471"/>
<path transform="translate(0,0)" style="stroke: rgb(35,35,35); stroke-width: 5; stroke-linecap: round; stroke-linejoin: round; fill: none" stroke-linecap="round" d="M-58.2023 54.9071C-58.2023 54.9071-55.3323 66.1471-50.0923 66.0771-44.8523 66.0071-32.8023 58.2771-32.4123 53.5971"/>
<path transform="translate(0,0)" style="stroke: rgb(35,35,35); stroke-width: 5; stroke-linecap: round; stroke-linejoin: round; fill: none" stroke-linecap="round" d="M-6.3923 54.4271C-6.3923 54.4271-7.6523 66.2071-13.5523 66.4271-19.4523 66.6471-31.5523 60.6171-32.4123 53.1571"/>
<path transform="translate(0,0)" style="stroke: rgb(35,35,35); stroke-width: 5; stroke-linecap: round; stroke-linejoin: round; fill: none" stroke-linecap="round" d="M-45.4323 64.8671C-45.4323 64.8671-41.2823 83.6971-32.4323 83.4371-23.5823 83.1771-19.4323 65.2771-19.4323 65.2771"/>
<path transform="translate(0,0)" style="stroke: rgb(35,35,35); stroke-width: 5; stroke-linecap: round; stroke-linejoin: round; fill: none" stroke-linecap="round" d="M-77.8023-13.6429C-77.8023-13.6429-68.2223-22.0729-60.8023-21.1729"/>
<path transform="translate(0,0)" style="stroke: rgb(35,35,35); stroke-width: 5; stroke-linecap: round; stroke-linejoin: round; fill: none" stroke-linecap="round" d="M5.8177-15.1029C5.8177-15.1029-3.7523-23.5329-11.1823-22.6329"/>
<path transform="translate(0,0)" style="stroke: rgb(35,35,35); stroke-width: 5; stroke-linecap: round; stroke-linejoin: round; fill: none" stroke-linecap="round" d="M-41.0723-9.5129C-41.0723-9.5129-40.6023-5.2629-43.9423 1.2971"/>
<path transform="translate(0,0)" style="stroke: rgb(35,35,35); stroke-width: 5; stroke-linecap: round; stroke-linejoin: round; fill: none" stroke-linecap="round" d="M-26.2923-9.5129C-26.2923-9.5129-26.7623-5.2629-23.4223 1.2971"/>
<line transform="translate(0,0)" style="stroke: rgb(35,35,35); stroke-width: 5; stroke-linecap: round; stroke-linejoin: round; fill: none" x1="-33.6923" y1="-10.0629" x2="-33.6923" y2="1.8671"/>
<path transform="translate(0,0)" style="stroke: rgb(35,35,35); stroke-width: 5; stroke-linecap: round; stroke-linejoin: round; fill: none" stroke-linecap="round" d="M34.5677 111.7171C43.5677 111.9871 54.6477 103.2971 60.5677 97.9871 63.5683 95.2626 64.91 91.1578 64.0977 87.1871 62.0977 77.1871 56.3077 63.7171 56.3077 63.7171 99.9677 80.8271 18.6077-22.1929 18.6077-22.1929 30.7777-21.9429 43.7977-33.1929 49.6077-45.6829 55.4177-58.1729 55.3077-87.9429 36.6677-86.6829 18.0277-85.4229 21.9277-63.1729 18.9877-47.6029 16.0477-32.0329 5.3277-31.5129 5.3277-31.5129 5.3277-31.5129-32.8223-45.4329-72.6023-31.5129-72.6023-31.5129-83.3323-32.0229-86.2623-47.6029-89.1923-63.1829-85.2623-85.3829-103.8823-86.6629-122.5023-87.9429-122.6023-58.1929-116.8023-45.6829-111.0023-33.1729-97.9923-21.9429-85.8023-22.1929-85.8023-22.1929-167.1623 80.8071-123.5023 63.7171-123.5023 63.7171-129.2823 77.2171-131.2923 87.1871-132.1144 91.1506-130.7883 95.2541-127.8023 97.9871-121.9223 103.2971-110.8923 111.9871-101.8023 111.7171"/>
<path transform="translate(0,0)" style="stroke: rgb(35,35,35); stroke-width: 5; stroke-linecap: round; stroke-linejoin: round; fill: rgb(255,255,255)" stroke-linecap="round" d="M11.0577 85.1971"/>
</g>
</g>
</svg>